<?xml version="1.0" encoding="utf-8"?>
<!-- Generator: Adobe Illustrator 21.0.0, SVG Export Plug-In . SVG Version: 6.00 Build 0)  -->
<svg version="1.1" id="Layer_1" xmlns="http://www.w3.org/2000/svg" xmlns:xlink="http://www.w3.org/1999/xlink" x="0px" y="0px"
	 viewBox="0 0 700 370" style="enable-background:new 0 0 700 370;" xml:space="preserve">
<style type="text/css">
	.st0{display:none;fill:#FFFFFF;}
	.st1{fill:#FAD300;}
	.st2{display:none;opacity:0.1;}
	.st3{opacity:0.1;}
	.st4{fill:#D5A647;}
	.st5{fill:#42320F;}
	.st6{fill:#F9F9F9;}
	.st7{fill:#A07C33;}
	.st8{fill:#303030;}
	.st9{fill:#2771CE;}
	.st10{fill:#C20A00;}
	.st11{fill:#FFFFFF;}
</style>
<g id="logo">
	<g id="logo_potato_2_">
		<g>
			<path class="st0" d="M245.2,147.6c-6.3-6.2-13.4-10.8-20.2-15.3c-4.5-3-8.8-5.8-12.7-9c-11-8.9-19.5-20.6-28.5-33
				c-2.8-3.9-5.7-7.9-8.7-11.8c-1.3-1.7-2.7-3.4-4.1-5.2l-0.5-0.6c-1.4-1.7-2.8-3.3-4.2-4.9l-0.7-0.8c-1.5-1.7-3-3.3-4.5-4.8
				l-0.5-0.5c-12.4-12.5-25.1-20.3-38.7-23.7c-23.4-5.9-49.7,1.8-68.7,20c-16,15.4-26.5,37.8-29.6,63.2c-2.8,23,1.2,44.8,5,65.9
				l1.1,6.2c0.4,2.2,0.8,4.5,1.2,6.7c4.3,24.5,8.8,49.9,22.8,73.1c11,18.3,26.9,32.9,44.6,41.3c0.8,0.4,1.7,0.7,2.5,1.1
				c0.7,0.3,1.3,0.6,2,0.8l0.2,0.1c0.7,0.3,1.5,0.6,2.2,0.8c1.3,0.5,2.6,0.9,3.9,1.3c0.7,0.2,1.3,0.4,2,0.6c1.2,0.3,2.3,0.6,3.5,0.9
				l0.3,0.1c0.3,0.1,0.6,0.2,0.9,0.2c1.5,0.3,3,0.6,4.8,0.9c0.5,0.1,0.9,0.1,1.4,0.2c1.9,0.3,3.6,0.4,5.2,0.5
				c19.9,1.3,38.5-5.2,52.5-11c3-1.3,6-2.6,8.8-3.9c17.4-8.1,31.7-17.3,43.5-28c17-15.5,28.6-34.1,33.5-53.8
				C272.6,197,264.6,166.5,245.2,147.6z"/>
			<g>
				<path class="st1" d="M34.2,122.5c2.6-21.1,11.1-42,26.4-56.8c15.3-14.8,38-22.6,58.7-17.4c19.7,5,35,20.5,47.3,36.6
					c12.4,16.2,23.2,33.9,39.1,46.7c10.4,8.3,22.6,14.3,32.1,23.6c17.4,17,23.4,43.9,17.5,67.5c-4.6,18.8-16,35.5-30.3,48.5
					c-14.3,13-31.5,22.5-49.3,30c-15.1,6.3-31.3,11.3-47.6,10.2c-27.1-1.8-51-20.5-65.1-43.7C48.7,244.1,45,218,40.3,191.4
					C36.1,168.4,31.3,146,34.2,122.5z"/>
				<path class="st2" d="M237.8,155.2c-9.5-9.3-21.8-15.3-32.1-23.6c-15.8-12.8-26.7-30.5-39.1-46.7c-5.5-7.1-11.5-14.1-18.2-20.1
					c4.9,6.4,9.3,13.4,13.1,20.4c9.7,17.9,17.8,37.1,31.5,52.1c9,9.8,20.1,17.6,28.1,28.2c14.6,19.5,16.4,47,7,69.4
					c-7.5,17.8-21.2,32.6-37.4,43.3s-34.6,17.4-53.3,22.1c-11.2,2.8-22.9,4.8-34.4,4.5c7.9,3.7,16.3,6,25,6.6
					c16.4,1.1,32.5-3.9,47.6-10.2c17.8-7.5,35-17,49.3-30c14.3-13,25.7-29.7,30.3-48.5C261.1,199.1,255.2,172.2,237.8,155.2z"/>
				<g class="st3">
					<g>
						<path d="M114.2,263.4c5.1-2.4,1.4-10.4-3.7-8C105.3,257.8,109,265.8,114.2,263.4L114.2,263.4z"/>
					</g>
					<g>
						<path d="M160.7,266.8c0.1-0.1,0.2-0.2,0.2-0.2c2.6-2.5,0.7-6.6-2.9-6.3c-0.1,0-0.2,0-0.3,0c-2.4,0.2-3.7,3.1-2.7,5.2
							C155.9,267.6,158.9,268.5,160.7,266.8L160.7,266.8z"/>
					</g>
					<g>
						<path d="M211.4,189.1c7.4-3.4,2.1-14.8-5.3-11.4C198.7,181.1,204,192.5,211.4,189.1L211.4,189.1z"/>
					</g>
					<g>
						<path d="M194.4,225.2c4.9-2.3,1.4-9.9-3.5-7.6C186,219.9,189.5,227.5,194.4,225.2L194.4,225.2z"/>
					</g>
					<g>
						<path d="M84.7,210.5c-0.1-0.1-0.2-0.1-0.3-0.2c-2.4-1.6-5.5-0.1-5.8,2.7c0,0.1,0,0.2,0,0.3c-0.4,3,2.9,5.1,5.5,3.9
							C86.7,216,87.2,212.1,84.7,210.5L84.7,210.5z"/>
					</g>
					<g>
						<path d="M112.5,121.4c3.7-1.7,5.7-6.6,3.8-10.4c-1.9-3.8-6.4-5.6-10.4-3.8c-3.7,1.7-5.7,6.6-3.8,10.4
							C104.1,121.3,108.6,123.2,112.5,121.4L112.5,121.4z"/>
					</g>
					<g>
						<path d="M175.6,142.5c3.5-1.6,1-7.1-2.5-5.4C169.6,138.7,172.1,144.1,175.6,142.5L175.6,142.5z"/>
					</g>
					<g>
						<path d="M94,171c5.3-2.4,1.5-10.6-3.8-8.2C85,165.3,88.8,173.4,94,171L94,171z"/>
					</g>
					<g>
						<path d="M121.4,62.7c5.3-2.4,1.5-10.6-3.8-8.2C112.4,56.9,116.1,65.1,121.4,62.7L121.4,62.7z"/>
					</g>
					<g>
						<path d="M145.3,104.1c2.1-1,3.3-3.8,2.2-6c-1.1-2.2-3.7-3.3-6-2.2c-2.1,1-3.3,3.8-2.2,6C140.5,104.1,143,105.2,145.3,104.1
							L145.3,104.1z"/>
					</g>
					<ellipse transform="matrix(0.9072 -0.4207 0.4207 0.9072 -26.6994 36.4473)" class="st4" cx="69.3" cy="78.7" rx="5" ry="5"/>
				</g>
				<g>
					<g>
						<g>
							
								<ellipse transform="matrix(0.9072 -0.4207 0.4207 0.9072 -69.0744 60.1824)" class="st5" cx="101.9" cy="186.7" rx="5.7" ry="10.9"/>
							
								<ellipse transform="matrix(0.9072 -0.4206 0.4206 0.9072 -67.9943 60.4056)" class="st6" cx="102.9" cy="184.4" rx="1.7" ry="3.2"/>
							
								<ellipse transform="matrix(0.9072 -0.4207 0.4207 0.9072 -70.7911 60.7213)" class="st6" cx="102.3" cy="190.8" rx="1.2" ry="2.4"/>
						</g>
						<g>
							
								<ellipse transform="matrix(0.9072 -0.4207 0.4207 0.9072 -51.1601 83.6852)" class="st5" cx="164.1" cy="157.8" rx="5.7" ry="10.9"/>
							
								<ellipse transform="matrix(0.9072 -0.4207 0.4207 0.9072 -50.0844 83.9138)" class="st6" cx="165.2" cy="155.5" rx="1.7" ry="3.2"/>
							
								<ellipse transform="matrix(0.9072 -0.4207 0.4207 0.9072 -52.879 84.2299)" class="st6" cx="164.5" cy="162" rx="1.2" ry="2.4"/>
						</g>
					</g>
					<g>
						
							<ellipse transform="matrix(0.9072 -0.4207 0.4207 0.9072 -75.4812 64.4823)" class="st7" cx="108.4" cy="203.4" rx="9.1" ry="2.3"/>
						
							<ellipse transform="matrix(0.9072 -0.4207 0.4207 0.9072 -57.0058 88.7228)" class="st7" cx="172.6" cy="173.6" rx="9.1" ry="2.3"/>
					</g>
				</g>
			</g>
		</g>
		<g id="glasses_2_">
			<polygon class="st8" points="206.4,85.5 6,180.4 12.5,194.1 26.1,187.6 49.8,237.7 123.4,202.9 119.7,182.3 135.8,174.7 
				149.4,190.6 222.9,155.8 199.2,105.7 212.9,99.2 			"/>
			<polygon class="st9" points="99.2,153 39.8,181.1 57,217.6 106.5,194.2 			"/>
			<polygon class="st10" points="153.3,172 202.8,148.6 185.5,112.1 126.2,140.2 			"/>
			<path class="st11" d="M128.4,177.4L128.4,177.4c-0.1,0-0.2,0.1-0.3,0.1c-0.1,0-0.2,0.1-0.3,0.1l0,0c-5.2,2.5-10.4,5.2-15.7,8
				c4.2,8.2,10.1,13.1,15,15.5c4.6,2.2,8.8,2.7,12.3,1.6l0.1,0.1c0.1-0.1,0.2-0.1,0.3-0.2c0.1,0,0.2,0,0.3-0.1l-0.1-0.1
				c3.1-2,5.4-5.5,6.7-10.4c1.4-5.2,1.4-13-2.1-21.5C139.1,172.9,133.7,175,128.4,177.4z"/>
		</g>
	</g>
	<g>
		<path class="st11" d="M312.2,152.8c-6.6-3.6-11.8-8.6-15.6-14.9c-3.8-6.4-5.6-13.5-5.6-21.5c0-8,1.9-15.2,5.7-21.5
			c3.8-6.4,9-11.3,15.6-14.9s14.1-5.4,22.3-5.4c6.7,0,12.8,1.2,18.3,3.5c5.5,2.3,10.2,5.7,14,10.1l-9.8,9.2
			c-5.9-6.4-13.1-9.5-21.7-9.5c-5.6,0-10.6,1.2-15,3.7c-4.4,2.4-7.9,5.8-10.4,10.2c-2.5,4.3-3.7,9.3-3.7,14.8
			c0,5.5,1.2,10.4,3.7,14.8c2.5,4.3,5.9,7.7,10.4,10.2c4.4,2.4,9.4,3.7,15,3.7c8.6,0,15.9-3.2,21.7-9.7l9.8,9.3
			c-3.8,4.4-8.5,7.8-14,10.1c-5.5,2.3-11.7,3.5-18.3,3.5C326.3,158.3,318.8,156.5,312.2,152.8z"/>
		<path class="st11" d="M388.6,153.8c-5-2.7-9-6.5-11.8-11.3c-2.8-4.8-4.2-10.3-4.2-16.5c0-6.1,1.4-11.6,4.2-16.4
			c2.8-4.8,6.8-8.6,11.8-11.3c5-2.7,10.7-4.1,17-4.1c6.4,0,12.1,1.4,17.1,4.1c5,2.7,9,6.5,11.8,11.3c2.8,4.8,4.2,10.3,4.2,16.4
			c0,6.1-1.4,11.6-4.2,16.5c-2.8,4.8-6.8,8.6-11.8,11.3c-5,2.7-10.7,4.1-17.1,4.1C399.3,157.9,393.6,156.6,388.6,153.8z
			 M418.8,140.1c3.5-3.6,5.2-8.3,5.2-14.1c0-5.8-1.7-10.5-5.2-14.1c-3.5-3.6-7.9-5.4-13.3-5.4c-5.3,0-9.8,1.8-13.2,5.4
			c-3.5,3.6-5.2,8.3-5.2,14.1c0,5.8,1.7,10.5,5.2,14.1c3.4,3.6,7.9,5.4,13.2,5.4C410.9,145.5,415.3,143.7,418.8,140.1z"/>
		<path class="st11" d="M512.8,95v62.1h-13.8v-7.9c-2.3,2.8-5.2,4.9-8.7,6.5c-3.5,1.5-7.3,2.3-11.3,2.3c-8.3,0-14.8-2.3-19.6-6.9
			c-4.8-4.6-7.2-11.5-7.2-20.5V95h14.5v33.5c0,5.6,1.3,9.8,3.8,12.5c2.5,2.8,6.1,4.1,10.8,4.1c5.2,0,9.3-1.6,12.4-4.8
			c3.1-3.2,4.6-7.9,4.6-13.9V95H512.8z"/>
		<path class="st11" d="M543,153.8c-5.1-2.7-9.1-6.5-12-11.3c-2.9-4.8-4.3-10.3-4.3-16.5c0-6.1,1.4-11.6,4.3-16.4
			c2.9-4.8,6.8-8.6,11.9-11.3c5.1-2.7,10.9-4.1,17.4-4.1c6.1,0,11.5,1.2,16.1,3.7c4.6,2.5,8.1,6,10.4,10.7l-11.2,6.5
			c-1.8-2.9-4-5-6.7-6.5c-2.7-1.4-5.6-2.2-8.8-2.2c-5.4,0-9.9,1.8-13.5,5.3c-3.6,3.5-5.3,8.2-5.3,14.1c0,5.9,1.8,10.6,5.3,14.1
			c3.5,3.5,8,5.3,13.5,5.3c3.2,0,6.1-0.7,8.8-2.2c2.7-1.4,4.9-3.6,6.7-6.5l11.2,6.5c-2.4,4.7-5.9,8.2-10.5,10.8
			c-4.6,2.5-9.9,3.8-16,3.8C553.9,157.9,548.1,156.6,543,153.8z"/>
		<path class="st11" d="M652.9,101.1c4.7,4.6,7.1,11.4,7.1,20.4v35.6h-14.5v-33.7c0-5.4-1.3-9.5-3.8-12.3c-2.6-2.8-6.2-4.1-10.9-4.1
			c-5.4,0-9.6,1.6-12.7,4.8c-3.1,3.2-4.7,7.9-4.7,13.9v31.4h-14.5V70.8h14.5v31.4c2.4-2.6,5.4-4.5,8.9-5.9c3.5-1.4,7.5-2,11.8-2
			C641.9,94.3,648.2,96.6,652.9,101.1z"/>
		<path class="st1" d="M348.7,191.2c5.2,2.3,9.2,5.7,12,10c2.8,4.3,4.2,9.5,4.2,15.5c0,5.9-1.4,11-4.2,15.4
			c-2.8,4.4-6.8,7.7-12,10.1c-5.2,2.3-11.4,3.5-18.4,3.5h-18.4v23.5h-15.1v-81.4h33.5C337.4,187.7,343.5,188.9,348.7,191.2z
			 M344.6,228.7c3.4-2.8,5.1-6.8,5.1-12c0-5.2-1.7-9.2-5.1-12c-3.4-2.8-8.4-4.2-15-4.2h-17.7v32.3h17.7
			C336.2,232.8,341.2,231.4,344.6,228.7z"/>
		<path class="st1" d="M389.4,265.9c-5-2.7-9-6.5-11.8-11.3c-2.8-4.8-4.2-10.3-4.2-16.5c0-6.1,1.4-11.6,4.2-16.4
			c2.8-4.8,6.8-8.6,11.8-11.3c5-2.7,10.7-4.1,17-4.1c6.4,0,12.1,1.4,17.1,4.1c5,2.7,9,6.5,11.8,11.3c2.8,4.8,4.2,10.3,4.2,16.4
			c0,6.1-1.4,11.6-4.2,16.5c-2.8,4.8-6.8,8.6-11.8,11.3c-5,2.7-10.7,4.1-17.1,4.1C400.1,269.9,394.4,268.6,389.4,265.9z
			 M419.6,252.1c3.5-3.6,5.2-8.3,5.2-14.1s-1.7-10.5-5.2-14.1c-3.5-3.6-7.9-5.3-13.3-5.3c-5.3,0-9.8,1.8-13.2,5.3
			c-3.5,3.6-5.2,8.3-5.2,14.1s1.7,10.5,5.2,14.1c3.4,3.6,7.9,5.3,13.2,5.3C411.7,257.5,416.1,255.7,419.6,252.1z"/>
		<path class="st1" d="M490.8,265.8c-1.7,1.4-3.8,2.4-6.2,3.1c-2.4,0.7-5,1-7.7,1c-6.8,0-12.1-1.8-15.8-5.4
			c-3.7-3.6-5.6-8.8-5.6-15.6v-29.9h-10.2v-11.6h10.2v-14.2H470v14.2h16.6v11.6H470v29.5c0,3,0.7,5.3,2.2,6.9
			c1.5,1.6,3.6,2.4,6.4,2.4c3.3,0,6-0.9,8.1-2.6L490.8,265.8z"/>
		<path class="st1" d="M547.5,212.9c4.8,4.4,7.3,11,7.3,19.8v36.4H541v-7.6c-1.8,2.7-4.3,4.8-7.6,6.2c-3.3,1.4-7.3,2.2-11.9,2.2
			c-4.7,0-8.7-0.8-12.2-2.4c-3.5-1.6-6.2-3.8-8.1-6.6c-1.9-2.8-2.8-6-2.8-9.6c0-5.6,2.1-10.1,6.2-13.4c4.1-3.4,10.7-5.1,19.6-5.1h16
			v-0.9c0-4.3-1.3-7.7-3.9-10c-2.6-2.3-6.5-3.5-11.6-3.5c-3.5,0-6.9,0.5-10.3,1.6c-3.4,1.1-6.2,2.6-8.5,4.5l-5.7-10.6
			c3.3-2.5,7.2-4.4,11.7-5.7c4.6-1.3,9.4-2,14.5-2C535.7,206.3,542.7,208.5,547.5,212.9z M534.2,256.9c2.8-1.7,4.8-4.1,6-7.2v-7.2
			h-15c-8.4,0-12.6,2.8-12.6,8.3c0,2.6,1,4.7,3.1,6.3c2.1,1.6,5,2.3,8.7,2.3C528.2,259.4,531.4,258.5,534.2,256.9z"/>
		<path class="st1" d="M610.7,265.8c-1.7,1.4-3.8,2.4-6.2,3.1c-2.4,0.7-5,1-7.7,1c-6.8,0-12.1-1.8-15.8-5.4
			c-3.7-3.6-5.6-8.8-5.6-15.6v-29.9h-10.2v-11.6h10.2v-14.2h14.5v14.2h16.6v11.6h-16.6v29.5c0,3,0.7,5.3,2.2,6.9
			c1.5,1.6,3.6,2.4,6.4,2.4c3.3,0,6-0.9,8.1-2.6L610.7,265.8z"/>
		<path class="st1" d="M631.5,265.9c-5-2.7-9-6.5-11.8-11.3c-2.8-4.8-4.2-10.3-4.2-16.5c0-6.1,1.4-11.6,4.2-16.4
			c2.8-4.8,6.8-8.6,11.8-11.3c5-2.7,10.7-4.1,17-4.1c6.4,0,12.1,1.4,17.1,4.1c5,2.7,9,6.5,11.8,11.3c2.8,4.8,4.2,10.3,4.2,16.4
			c0,6.1-1.4,11.6-4.2,16.5c-2.8,4.8-6.8,8.6-11.8,11.3c-5,2.7-10.7,4.1-17.1,4.1C642.2,269.9,636.6,268.6,631.5,265.9z
			 M661.8,252.1c3.5-3.6,5.2-8.3,5.2-14.1s-1.7-10.5-5.2-14.1c-3.5-3.6-7.9-5.3-13.3-5.3c-5.3,0-9.8,1.8-13.2,5.3
			c-3.5,3.6-5.2,8.3-5.2,14.1s1.7,10.5,5.2,14.1c3.4,3.6,7.9,5.3,13.2,5.3C653.9,257.5,658.3,255.7,661.8,252.1z"/>
	</g>
</g>
</svg>
